Coordinates
version=1
nRows=7
nColumns=40
inDegrees=yes

Units are S.I. units (second, meters, Newtons, ...)
Angles are in degrees.

endheader
time	pelvis_tilt	pelvis_list	pelvis_rotation	pelvis_tx	pelvis_ty	pelvis_tz	hip_flexion_r	hip_adduction_r	hip_rotation_r	knee_angle_r	knee_angle_r_beta	ankle_angle_r	subtalar_angle_r	mtp_angle_r	hip_flexion_l	hip_adduction_l	hip_rotation_l	knee_angle_l	knee_angle_l_beta	ankle_angle_l	subtalar_angle_l	mtp_angle_l	lumbar_extension	lumbar_bending	lumbar_rotation	arm_flex_r	arm_add_r	arm_rot_r	elbow_flex_r	pro_sup_r	wrist_flex_r	wrist_dev_r	arm_flex_l	arm_add_l	arm_rot_l	elbow_flex_l	pro_sup_l	wrist_flex_l	wrist_dev_l
      4.51000000	     -4.17790794	     -3.20750464	      3.46056965	      1.10213514	      0.92522180	      0.41578553	      6.25620205	     -6.84839734	    -10.89236237	     31.19817220	     31.19817220	     12.07182861	     -7.35697955	    -10.27326072	     20.22683759	     -1.24235747	     -2.00346335	     26.11076657	     26.11076657	     12.95530773	    -14.41957459	      2.61084219	     -8.24231166	      3.66362137	      3.13737684	     35.13262844	    -16.31958638	     -7.65718926	     48.20229390	     45.53341515	      0.00000000	      0.00000000	      7.88948576	    -14.55115151	     18.01519811	     32.22485352	     45.12851168	      0.00000000	      0.00000000
      4.53478571	     -3.89943285	     -3.08399734	      2.93365367	      1.10100261	      0.92448173	      0.41283197	      8.17821455	     -7.62219998	     -9.98804466	     35.53469847	     35.53469847	     11.03807970	     -8.80511335	    -11.07223349	     19.91038491	     -1.00926617	     -2.27119740	     26.72161348	     26.72161348	     13.43260513	    -14.95126167	      2.47840680	     -8.45163040	      3.69882026	      2.61125104	     31.46983437	    -15.87570805	     -7.43420919	     46.50694806	     45.56511942	      0.00000000	      0.00000000	      9.40449362	    -14.68155576	     17.80882518	     33.00042371	     45.18146266	      0.00000000	      0.00000000
      4.55957143	     -3.74963809	     -3.03919618	      2.36060819	      1.09971808	      0.92350802	      0.41005102	     10.30235295	     -8.16513302	     -8.82591220	     39.82342269	     39.82342269	      9.61034796	    -10.52763144	    -11.72334795	     19.74399033	     -0.84248557	     -2.47048981	     27.35814304	     27.35814304	     13.91105788	    -15.62303233	      2.50741130	     -8.55393448	      3.79511214	      2.36990702	     27.48477692	    -15.71017480	     -7.19556622	     44.41492950	     45.60935257	      0.00000000	      0.00000000	     11.12994788	    -14.75324043	     17.53783263	     34.02463383	     45.24683578	      0.00000000	      0.00000000
      4.58435714	     -3.59918222	     -3.07475618	      1.76625978	      1.09833139	      0.92256522	      0.40746672	     12.37246922	     -8.43980686	     -7.53750457	     43.84732869	     43.84732869	      8.00227132	    -12.36563694	    -12.07107580	     19.57258202	     -0.76554821	     -2.63662652	     27.96973248	     27.96973248	     14.42976533	    -16.23554809	      2.75103794	     -8.65495536	      4.02759489	      2.45406455	     23.35284975	    -15.72362352	     -6.92499795	     41.93186554	     45.66638257	      0.00000000	      0.00000000	     13.04482819	    -14.76512955	     17.21779517	     35.26047851	     45.32272335	      0.00000000	      0.00000000
      4.60914286	     -3.36543336	     -3.07210085	      1.17771875	      1.09692898	      0.92187400	      0.40517394	     14.22451126	     -8.66818985	     -6.37305539	     47.47231901	     47.47231901	      6.50862415	    -13.64746608	    -11.92901251	     19.27498697	     -0.68499809	     -2.88580338	     28.53300591	     28.53300591	     15.01297697	    -16.65965889	      2.94380088	     -8.96940923	      4.17258657	      2.29203944	     19.36103789	    -15.48222485	     -6.64109240	     39.56133501	     45.71817178	      0.00000000	      0.00000000	     15.01599995	    -14.98018589	     16.86995047	     36.40538405	     45.39957314	      0.00000000	      0.00000000
      4.63392857	     -3.11341179	     -3.27364271	      0.56779755	      1.09556599	      0.92151633	      0.40348759	     15.91654562	     -8.47377622	     -5.26880131	     50.60318579	     50.60318579	      5.46967173	    -14.65618587	    -10.41093413	     18.94131335	     -0.88045575	     -3.17948356	     29.08567485	     29.08567485	     15.82874825	    -16.86631587	      3.84191031	     -9.24828410	      4.49550627	      2.67960359	     15.40143349	    -15.49657901	     -6.28298637	     36.31222652	     45.80346733	      0.00000000	      0.00000000	     17.20739394	    -14.99656057	     16.45574118	     37.93796615	     45.49650153	      0.00000000	      0.00000000
      4.65871429	     -3.05903731	     -3.33993730	     -0.09481797	      1.09390427	      0.92118868	      0.40226126	     17.74808510	     -8.37859211	     -4.30100781	     53.21628847	     53.21628847	      4.73324567	    -15.08170394	     -8.99022919	     18.69625163	     -0.96714514	     -3.60103884	     29.34501617	     29.34501617	     16.33664494	    -17.06053546	      4.27986008	     -9.42854549	      4.65400106	      2.61097939	     11.61809958	    -15.14131340	     -6.00384232	     33.86479548	     45.86005722	      0.00000000	      0.00000000	     19.15344987	    -15.31836271	     15.98107128	     39.26556247	     45.58850089	      0.00000000	      0.00000000
